<?xml version="1.0" encoding="UTF-8" standalone="no"?>
<!-- Created with Inkscape (http://www.inkscape.org/) -->

<svg
   width="6144"
   height="1024"
   viewBox="0 0 1625.6 270.93333"
   version="1.1"
   id="svg1"
   inkscape:version="1.4.2 (f4327f4, 2025-05-13)"
   sodipodi:docname="common-ground-wide.svg"
   xmlns:inkscape="http://www.inkscape.org/namespaces/inkscape"
   xmlns:sodipodi="http://sodipodi.sourceforge.net/DTD/sodipodi-0.dtd"
   xmlns:xlink="http://www.w3.org/1999/xlink"
   xmlns="http://www.w3.org/2000/svg"
   xmlns:svg="http://www.w3.org/2000/svg">
  <sodipodi:namedview
     id="namedview1"
     pagecolor="#505050"
     bordercolor="#ffffff"
     borderopacity="1"
     inkscape:showpageshadow="0"
     inkscape:pageopacity="0"
     inkscape:pagecheckerboard="1"
     inkscape:deskcolor="#505050"
     inkscape:document-units="px"
     showguides="true"
     inkscape:zoom="0.12708801"
     inkscape:cx="3233.9794"
     inkscape:cy="1058.3217"
     inkscape:window-width="1920"
     inkscape:window-height="1009"
     inkscape:window-x="-8"
     inkscape:window-y="-8"
     inkscape:window-maximized="1"
     inkscape:current-layer="layer1" />
  <defs
     id="defs1">
    <rect
       x="1129.1388"
       y="239.99117"
       width="3871.333"
       height="763.25061"
       id="rect15" />
    <rect
       x="1125.2045"
       y="338.34821"
       width="4548.0293"
       height="476.04807"
       id="rect14" />
    <linearGradient
       id="linearGradient8"
       inkscape:collect="always">
      <stop
         style="stop-color:#56aec2;stop-opacity:1;"
         offset="0"
         id="stop9" />
      <stop
         style="stop-color:#a5f0ff;stop-opacity:1;"
         offset="1"
         id="stop10" />
    </linearGradient>
    <linearGradient
       id="linearGradient3"
       inkscape:collect="always">
      <stop
         style="stop-color:#3bc2e2;stop-opacity:1;"
         offset="0"
         id="stop6" />
      <stop
         style="stop-color:#22edff;stop-opacity:1;"
         offset="0.52145213"
         id="stop7" />
      <stop
         style="stop-color:#a8f8ff;stop-opacity:1;"
         offset="1"
         id="stop8" />
    </linearGradient>
    <inkscape:path-effect
       effect="fillet_chamfer"
       id="path-effect3"
       is_visible="true"
       lpeversion="1"
       nodesatellites_param="F,0,0,1,0,0,0,1 @ F,0,0,1,0,0,0,1 @ F,0,0,1,0,0,0,1 @ F,0,0,1,0,0,0,1 @ F,0,0,1,0,0,0,1 @ F,0,0,1,0,0,0,1 @ F,0,0,1,0,0,0,1 @ F,0,0,1,0,0,0,1"
       radius="0"
       unit="px"
       method="auto"
       mode="F"
       chamfer_steps="1"
       flexible="false"
       use_knot_distance="true"
       apply_no_radius="true"
       apply_with_radius="true"
       only_selected="false"
       hide_knots="false" />
    <linearGradient
       id="linearGradient1"
       inkscape:collect="always">
      <stop
         style="stop-color:#0f471c;stop-opacity:1;"
         offset="0"
         id="stop3" />
      <stop
         style="stop-color:#26ab45;stop-opacity:1;"
         offset="0.41009462"
         id="stop1" />
      <stop
         style="stop-color:#6fff93;stop-opacity:1;"
         offset="1"
         id="stop2" />
    </linearGradient>
    <linearGradient
       inkscape:collect="always"
       xlink:href="#linearGradient1"
       id="linearGradient2"
       x1="27.627613"
       y1="214.18631"
       x2="237.72185"
       y2="157.89172"
       gradientUnits="userSpaceOnUse" />
    <linearGradient
       inkscape:collect="always"
       xlink:href="#linearGradient3"
       id="linearGradient5"
       x1="94.744225"
       y1="97.776436"
       x2="80.21714"
       y2="128.92987"
       gradientUnits="userSpaceOnUse" />
    <linearGradient
       inkscape:collect="always"
       xlink:href="#linearGradient8"
       id="linearGradient10"
       x1="88.424606"
       y1="47.043457"
       x2="72.404388"
       y2="81.398926"
       gradientUnits="userSpaceOnUse" />
    <inkscape:path-effect
       effect="fillet_chamfer"
       id="path-effect3-2"
       is_visible="true"
       lpeversion="1"
       nodesatellites_param="F,0,0,1,0,0,0,1 @ F,0,0,1,0,0,0,1 @ F,0,0,1,0,0,0,1 @ F,0,0,1,0,0,0,1 @ F,0,0,1,0,0,0,1 @ F,0,0,1,0,0,0,1 @ F,0,0,1,0,0,0,1 @ F,0,0,1,0,0,0,1"
       radius="0"
       unit="px"
       method="auto"
       mode="F"
       chamfer_steps="1"
       flexible="false"
       use_knot_distance="true"
       apply_no_radius="true"
       apply_with_radius="true"
       only_selected="false"
       hide_knots="false" />
    <linearGradient
       inkscape:collect="always"
       xlink:href="#linearGradient3"
       id="linearGradient11"
       gradientUnits="userSpaceOnUse"
       x1="94.744225"
       y1="97.776436"
       x2="80.21714"
       y2="128.92987" />
    <inkscape:path-effect
       effect="fillet_chamfer"
       id="path-effect3-27"
       is_visible="true"
       lpeversion="1"
       nodesatellites_param="F,0,0,1,0,0,0,1 @ F,0,0,1,0,0,0,1 @ F,0,0,1,0,0,0,1 @ F,0,0,1,0,0,0,1 @ F,0,0,1,0,0,0,1 @ F,0,0,1,0,0,0,1 @ F,0,0,1,0,0,0,1 @ F,0,0,1,0,0,0,1"
       radius="0"
       unit="px"
       method="auto"
       mode="F"
       chamfer_steps="1"
       flexible="false"
       use_knot_distance="true"
       apply_no_radius="true"
       apply_with_radius="true"
       only_selected="false"
       hide_knots="false" />
    <linearGradient
       inkscape:collect="always"
       xlink:href="#linearGradient3"
       id="linearGradient12"
       gradientUnits="userSpaceOnUse"
       x1="94.744225"
       y1="97.776436"
       x2="80.21714"
       y2="128.92987" />
    <linearGradient
       inkscape:collect="always"
       xlink:href="#linearGradient8"
       id="linearGradient13"
       gradientUnits="userSpaceOnUse"
       x1="88.424606"
       y1="47.043457"
       x2="72.404388"
       y2="81.398926"
       gradientTransform="translate(49.586476,-7.9832971)" />
    <linearGradient
       inkscape:collect="always"
       xlink:href="#linearGradient8"
       id="linearGradient14"
       gradientUnits="userSpaceOnUse"
       x1="88.424606"
       y1="47.043457"
       x2="72.404388"
       y2="81.398926"
       gradientTransform="translate(96.28637,-2.0490654)" />
  </defs>
  <g
     inkscape:label="Layer 1"
     inkscape:groupmode="layer"
     id="layer1">
    <path
       style="fill:url(#linearGradient5);stroke-width:0.264583"
       id="rect3"
       width="34.374016"
       height="78.758354"
       x="70.293678"
       y="73.973984"
       inkscape:path-effect="#path-effect3"
       sodipodi:type="rect"
       d="m 82.438657,73.973984 h 10.084059 c 6.728318,0 12.144974,5.41666 12.144974,12.144978 v 54.468398 c 0,6.72832 -5.416656,12.14498 -12.144974,12.14498 H 82.438657 c -6.728318,0 -12.144979,-5.41666 -12.144979,-12.14498 V 86.118962 c 0,-6.728318 5.416661,-12.144978 12.144979,-12.144978 z"
       ry="12.144979"
       transform="translate(-7.3605949,13.249071)" />
    <path
       style="fill:url(#linearGradient11);fill-opacity:1;stroke-width:0.264583"
       id="rect3-5"
       width="34.374016"
       height="78.758354"
       x="70.293678"
       y="73.973984"
       inkscape:path-effect="#path-effect3-2"
       sodipodi:type="rect"
       d="m 82.438657,73.973984 h 10.084059 c 6.728318,0 12.144974,5.41666 12.144974,12.144978 v 54.468398 c 0,6.72832 -5.416656,12.14498 -12.144974,12.14498 H 82.438657 c -6.728318,0 -12.144979,-5.41666 -12.144979,-12.14498 V 86.118962 c 0,-6.728318 5.416661,-12.144978 12.144979,-12.144978 z"
       ry="12.144979"
       transform="translate(42.098531,5.2060966)" />
    <path
       style="fill:url(#linearGradient12);fill-opacity:1;stroke-width:0.264583"
       id="rect3-4"
       width="34.374016"
       height="78.758354"
       x="70.293678"
       y="73.973984"
       inkscape:path-effect="#path-effect3-27"
       sodipodi:type="rect"
       d="m 82.438657,73.973984 h 10.084059 c 6.728318,0 12.144974,5.41666 12.144974,12.144978 v 54.468398 c 0,6.72832 -5.416656,12.14498 -12.144974,12.14498 H 82.438657 c -6.728318,0 -12.144979,-5.41666 -12.144979,-12.14498 V 86.118962 c 0,-6.728318 5.416661,-12.144978 12.144979,-12.144978 z"
       ry="12.144979"
       transform="translate(89.914523,11.078634)" />
    <circle
       style="fill:url(#linearGradient10);stroke-width:0.264583"
       id="path8"
       cx="80.414497"
       cy="64.221191"
       r="18.953531" />
    <circle
       style="fill:url(#linearGradient13);fill-opacity:1;stroke-width:0.264583"
       id="path8-8"
       cx="130.00098"
       cy="56.237896"
       r="18.953531" />
    <circle
       style="fill:url(#linearGradient14);fill-opacity:1;stroke-width:0.264583"
       id="path8-2"
       cx="176.70087"
       cy="62.172127"
       r="18.953531" />
    <ellipse
       style="fill:url(#linearGradient2);fill-opacity:1;stroke-width:0.264583"
       id="path1"
       cx="132.67473"
       cy="186.03902"
       rx="108.75278"
       ry="51.708176" />
    <text
       xml:space="preserve"
       transform="scale(0.26458333)"
       id="text14"
       style="text-align:start;writing-mode:lr-tb;direction:ltr;white-space:pre;shape-inside:url(#rect14);display:inline;fill:#56aec2;fill-opacity:1" />
    <path
       d="m 1367.0295,376.61909 q -29.6225,-29.16669 -65.6251,-29.16669 -34.1797,0 -65.625,25.97658 -39.6485,32.81252 -54.6876,84.76568 -5.4687,18.68491 -5.4687,30.98961 0,12.3047 0.9114,19.14064 0,45.11722 30.5339,69.27088 28.711,22.33074 73.3725,22.33074 61.0677,-5.01302 117.1224,-46.94013 15.4948,-11.84897 32.8126,-22.78648 6.3802,0 12.7604,1.82292 6.8359,1.82292 6.8359,10.48178 -45.1172,39.19273 -76.1068,56.51046 -57.4219,30.9896 -103.9063,30.9896 -3.1901,0 -5.9245,0 -50.586,0 -86.5886,-31.44533 -38.2813,-33.26826 -38.2813,-82.94277 0,-37.36982 13.2162,-71.54953 13.6719,-34.17971 36.9141,-60.15629 23.6979,-26.43231 55.599,-41.92711 32.3568,-15.49481 69.2708,-15.49481 31.4454,0 41.0157,8.65886 11.849,10.48178 11.849,41.47139 z m 116.211,166.34126 q 0,-53.77608 46.4844,-86.5886 36.9141,-25.97658 88.8672,-31.44534 2.7344,0 12.7605,0 10.026,0 26.888,5.92449 37.3698,12.76042 51.0417,45.11721 5.4688,12.76043 5.4688,21.87502 0,8.65886 -0.4558,12.3047 0,56.96618 -43.2943,89.7787 -40.1042,30.07815 -100.2605,30.07815 -43.2943,0 -65.625,-20.0521 -21.875,-20.05209 -21.875,-66.99223 z m 31.4453,10.93751 q 0,28.25522 15.0391,38.28127 11.3932,7.29167 38.2813,7.29167 26.888,0 47.3958,-4.10156 20.5079,-4.10157 36.4584,-14.12761 34.1797,-21.87502 34.1797,-67.9037 0,-27.34377 -14.5833,-44.66149 -15.9506,-18.68491 -41.9272,-18.68491 -17.7734,3.19011 -36.0026,6.83595 -17.7734,3.64583 -33.724,14.12761 -34.6354,22.33074 -45.1172,82.94277 z m 257.4872,68.35942 q -18.6849,7.7474 -25.0652,7.7474 -5.9244,0 -8.2031,-1.36719 -2.2786,-1.36719 -5.013,-6.38021 0,-15.03907 0.9115,-37.82555 1.3671,-22.78647 2.2786,-48.76305 0.9115,-25.97658 0.9115,-52.40889 0,-26.43231 -2.7344,-48.30733 0,-14.58334 19.5963,-14.58334 4.5573,0 6.836,16.40626 2.7344,16.40626 3.6458,25.52085 1.3672,9.11459 2.2787,13.21615 11.8489,-21.41928 46.9401,-33.72398 18.6849,-5.92448 35.0912,-5.92448 16.4062,0 28.7109,4.10157 12.7605,3.64583 21.4193,14.12761 9.1146,10.02605 9.1146,26.88804 11.849,-22.33075 53.3204,-40.1042 37.8255,-16.86199 67.9037,-16.86199 43.2943,0 42.3828,32.81253 l 9.5703,169.53136 q 0,2.27865 -13.2161,3.19011 -25.5209,1.82292 -25.5209,-4.55729 -0.4557,-9.11459 -0.4557,-18.22918 l 2.2786,-73.37245 q 0,-51.49743 -10.026,-81.57558 -30.0782,2.27865 -46.4844,10.02605 -15.9506,7.29167 -28.2553,18.68491 -12.3047,10.93751 -21.875,29.62242 -21.4193,41.92711 -21.4193,111.19799 -2.7343,9.57032 -17.7734,9.57032 -10.0261,0 -16.4063,-3.19011 -6.3802,-3.64583 -5.013,-6.38021 8.6589,-48.30733 8.6589,-75.19536 0,-21.41929 -4.5573,-40.55993 -4.1016,-19.59637 -10.4818,-44.66149 -65.6251,0 -88.4115,52.40889 -10.0261,23.24221 -11.3933,43.75003 -0.9114,20.0521 -0.9114,34.63544 0,14.12762 1.3672,30.53388 z m 363.2164,0 q -18.6849,7.7474 -25.0651,7.7474 -5.9245,0 -8.2032,-1.36719 -2.2786,-1.36719 -5.013,-6.38021 0,-15.03907 0.9115,-37.82555 1.3672,-22.78647 2.2786,-48.76305 0.9115,-25.97658 0.9115,-52.40889 0,-26.43231 -2.7344,-48.30733 0,-14.58334 19.5964,-14.58334 4.5573,0 6.8359,16.40626 2.7344,16.40626 3.6459,25.52085 1.3671,9.11459 2.2786,13.21615 11.849,-21.41928 46.9401,-33.72398 18.6849,-5.92448 35.0912,-5.92448 16.4063,0 28.711,4.10157 12.7604,3.64583 21.4193,14.12761 9.1145,10.02605 9.1145,26.88804 11.849,-22.33075 53.3204,-40.1042 37.8255,-16.86199 67.9037,-16.86199 43.2943,0 42.3828,32.81253 l 9.5703,169.53136 q 0,2.27865 -13.2161,3.19011 -25.5209,1.82292 -25.5209,-4.55729 -0.4557,-9.11459 -0.4557,-18.22918 l 2.2787,-73.37245 q 0,-51.49743 -10.0261,-81.57558 -30.0781,2.27865 -46.4844,10.02605 -15.9505,7.29167 -28.2552,18.68491 -12.3047,10.93751 -21.875,29.62242 -21.4193,41.92711 -21.4193,111.19799 -2.7344,9.57032 -17.7735,9.57032 -10.026,0 -16.4062,-3.19011 -6.3802,-3.64583 -5.0131,-6.38021 8.6589,-48.30733 8.6589,-75.19536 0,-21.41929 -4.5573,-40.55993 -4.1016,-19.59637 -10.4818,-44.66149 -65.625,0 -88.4115,52.40889 -10.026,23.24221 -11.3932,43.75003 -0.9115,20.0521 -0.9115,34.63544 0,14.12762 1.3672,30.53388 z m 336.7841,-79.29693 q 0,-53.77608 46.4844,-86.5886 36.9141,-25.97658 88.8673,-31.44534 2.7344,0 12.7604,0 10.0261,0 26.888,5.92449 37.3699,12.76042 51.0417,45.11721 5.4688,12.76043 5.4688,21.87502 0,8.65886 -0.4557,12.3047 0,56.96618 -43.2943,89.7787 -40.1042,30.07815 -100.2605,30.07815 -43.2943,0 -65.6251,-20.0521 -21.875,-20.05209 -21.875,-66.99223 z m 31.4454,10.93751 q 0,28.25522 15.039,38.28127 11.3933,7.29167 38.2813,7.29167 26.888,0 47.3959,-4.10156 20.5078,-4.10157 36.4583,-14.12761 34.1797,-21.87502 34.1797,-67.9037 0,-27.34377 -14.5833,-44.66149 -15.9505,-18.68491 -41.9271,-18.68491 -17.7735,3.19011 -36.0026,6.83595 -17.7735,3.64583 -33.724,14.12761 -34.6355,22.33074 -45.1172,82.94277 z m 397.396,-24.15367 q 0,-54.23181 -5.9245,-79.75266 3.6459,-6.83594 -10.9375,-6.83594 -15.4948,0 -40.1042,7.7474 -24.6094,7.7474 -40.1042,15.49481 -36.9141,17.77345 -41.0156,34.63544 v 123.95842 h -30.5339 q -5.9245,-15.49481 -5.9245,-87.04434 0,-63.80212 2.2787,-93.88027 2.7343,-30.07815 4.1015,-34.17971 11.849,-7.7474 19.1407,-7.7474 11.3932,0 11.3932,26.88804 0,10.48178 -1.3672,20.50782 -0.9114,9.57032 -0.9114,13.21616 73.8281,-54.23181 114.3881,-54.23181 46.0286,0 52.4088,74.28391 2.7344,25.97658 2.7344,72.00526 l -0.4557,36.00262 q 0,20.0521 0.9114,38.73701 -4.5572,2.73438 -7.2916,2.73438 -1.3672,-0.45573 -5.9245,-1.36719 -4.5573,-0.91146 -11.849,-1.36719 -4.5573,-18.22918 -5.013,-36.91409 -0.4557,-19.14064 -0.4557,-35.09117 z m 456.1852,122.13551 v -83.3985 q -43.2943,29.62242 -60.1562,39.19274 -39.1928,21.41928 -68.8152,21.41928 -35.5469,0 -61.0677,-25.97658 -25.9766,-26.88804 -25.9766,-61.52348 2.2786,-36.45836 15.4948,-73.82818 27.3437,-79.29693 90.6901,-116.21101 31.4454,-18.68491 72.461,-18.68491 0.9115,0 1.8229,0 l 12.3047,-0.45573 q 20.9636,0 19.1407,16.40626 -36.4584,1.82292 -68.3594,16.86199 -31.9011,15.03907 -55.599,40.55992 -23.2422,25.06512 -36.9141,58.78911 -13.2162,33.72398 -13.2162,68.81515 0,35.09117 18.2292,50.58597 18.2292,15.4948 46.9401,15.4948 24.6094,0 68.3595,-21.41928 27.7995,-13.67189 41.4713,-30.98961 6.836,-8.20313 6.836,-17.31772 v -67.44796 q -13.6719,0 -63.8021,10.48178 -49.6746,10.48178 -57.422,11.84896 -2.2786,-1.36718 -5.4687,-2.73437 -3.1901,-1.82292 -3.6458,-5.01303 -0.9115,-6.83594 20.0521,-20.96355 5.013,-2.73438 60.1562,-10.48178 55.1433,-8.20313 70.1824,-10.48178 15.0391,-2.27865 25.0651,-3.64584 4.5573,0.91146 11.3932,0 6.836,-1.36718 12.7605,-0.91145 14.5833,0.45572 13.6719,15.95053 l -37.8256,15.4948 q -8.6589,27.7995 -8.6589,104.81778 l 0.9115,67.90369 q 0,9.11459 0,16.862 -13.6719,6.83594 -26.4323,6.83594 -12.7604,0 -14.5834,-6.83594 z m 333.1383,-188.67201 q -19.1407,-13.67189 -49.2188,-13.67189 -28.2552,0 -52.4089,10.48178 -45.5729,19.14064 -62.4349,49.21879 -7.2917,13.67188 -7.2917,29.16668 0,2.73438 0,15.49481 0,12.30469 4.5573,33.72398 4.5573,20.96355 4.5573,42.83857 -9.5703,0.45573 -15.4948,2.27865 -5.9245,1.82292 -10.0261,1.82292 -4.1015,0 -7.2916,-3.64584 -2.7344,-3.64584 -6.3803,-14.12761 -0.4557,-2.73438 -1.8229,-15.49481 -1.3672,-12.76042 -3.6458,-30.9896 -1.8229,-18.22918 -4.5573,-39.64847 -2.2786,-21.87501 -4.5573,-42.83857 -5.013,-45.57295 -7.7474,-66.99223 0,-10.93751 15.9505,-10.93751 9.5704,0 15.0391,8.20313 5.4688,7.7474 8.6589,18.22918 3.1901,10.02605 4.1015,20.0521 1.3672,10.02605 2.2787,14.12761 60.1563,-53.77608 149.4793,-53.77608 10.026,0 20.9635,0.45573 2.7344,-0.45573 6.836,-0.45573 4.1015,0 8.2031,5.46876 5.013,6.38021 5.013,15.4948 0,22.78647 -12.7604,25.52085 z m 45.1171,79.75266 q 0,-53.77608 46.4844,-86.5886 36.9141,-25.97658 88.8673,-31.44534 2.7343,0 12.7604,0 10.026,0 26.888,5.92449 37.3698,12.76042 51.0417,45.11721 5.4688,12.76043 5.4688,21.87502 0,8.65886 -0.4557,12.3047 0,56.96618 -43.2944,89.7787 -40.1041,30.07815 -100.2604,30.07815 -43.2943,0 -65.6251,-20.0521 -21.875,-20.05209 -21.875,-66.99223 z m 31.4453,10.93751 q 0,28.25522 15.0391,38.28127 11.3932,7.29167 38.2813,7.29167 26.888,0 47.3959,-4.10156 20.5078,-4.10157 36.4583,-14.12761 34.1797,-21.87502 34.1797,-67.9037 0,-27.34377 -14.5833,-44.66149 -15.9506,-18.68491 -41.9271,-18.68491 -17.7735,3.19011 -36.0027,6.83595 -17.7734,3.64583 -33.7239,14.12761 -34.6355,22.33074 -45.1173,82.94277 z m 217.3831,15.03907 q 0,-7.29167 -1.3672,-20.0521 -0.9115,-13.21615 -1.8229,-28.71096 -0.9115,-15.4948 -0.9115,-31.44533 0,-15.95053 2.7344,-29.16669 5.9245,-29.62241 24.6094,-29.62241 12.7604,3.64583 16.862,9.11459 4.5573,5.46875 4.5573,13.67188 0,7.7474 -4.1016,19.59637 -15.0391,39.64846 -15.0391,71.54953 0,10.48178 1.3672,22.33074 7.2917,30.53388 50.1302,30.53388 22.3308,0 42.3829,-7.7474 38.2813,-14.12762 51.9531,-33.26826 4.1016,-20.96355 4.1016,-36.45835 0,-15.95054 -1.3672,-28.25523 -0.9114,-12.3047 -2.7344,-26.88804 -1.3671,-15.03908 -1.8229,-32.81253 5.9245,-2.73437 11.3933,-2.73437 5.9244,0 11.8489,5.92448 6.3802,5.92448 10.4818,22.33075 4.5573,16.40626 5.9245,38.737 1.3672,21.87502 1.3672,45.57295 0.4557,23.69793 0.4557,46.02868 0,21.87501 1.8229,37.82555 -5.4687,5.01302 -10.4817,5.01302 -18.2292,0 -26.8881,-36.45836 -5.9245,5.01303 -20.0521,12.3047 -30.0781,16.40626 -71.0938,21.87501 -7.7474,0.91146 -17.3177,0.91146 -9.5703,0 -24.1537,-3.64583 -14.1276,-3.64584 -26.888,-16.862 -12.7604,-13.21615 -15.9505,-39.19273 z m 416.9926,-39.19274 q 0,-54.23181 -5.9245,-79.75266 3.6459,-6.83594 -10.9375,-6.83594 -15.4948,0 -40.1042,7.7474 -24.6094,7.7474 -40.1042,15.49481 -36.9141,17.77345 -41.0156,34.63544 v 123.95842 h -30.5339 q -5.9245,-15.49481 -5.9245,-87.04434 0,-63.80212 2.2787,-93.88027 2.7343,-30.07815 4.1015,-34.17971 11.849,-7.7474 19.1407,-7.7474 11.3932,0 11.3932,26.88804 0,10.48178 -1.3672,20.50782 -0.9115,9.57032 -0.9115,13.21616 73.8282,-54.23181 114.3881,-54.23181 46.0287,0 52.4089,74.28391 2.7344,25.97658 2.7344,72.00526 l -0.4557,36.00262 q 0,20.0521 0.9114,38.73701 -4.5572,2.73438 -7.2916,2.73438 -1.3672,-0.45573 -5.9245,-1.36719 -4.5573,-0.91146 -11.849,-1.36719 -4.5573,-18.22918 -5.013,-36.91409 -0.4557,-19.14064 -0.4557,-35.09117 z m 271.159,-266.14602 q 0,43.75004 -2.7343,85.67715 -2.2787,41.47138 -4.5573,81.57558 -1.8229,39.64846 -1.8229,84.76568 0,44.66149 6.3802,94.79173 0,10.48178 -4.1016,15.03908 -3.6458,4.55729 -12.7604,4.55729 -21.4193,0 -21.4193,-35.5469 v -15.03907 q -64.7136,48.30732 -109.3751,48.30732 -17.7734,0 -36.4583,-8.65886 -18.2292,-8.65886 -34.6355,-35.09117 -2.2786,-10.93751 -2.2786,-22.33074 0,-11.39324 4.1015,-27.34377 4.5573,-16.40626 17.7735,-33.72398 13.6719,-17.31772 32.8125,-30.53388 41.9271,-28.25523 90.6902,-28.25523 20.9635,0 40.1042,6.38022 0,-8.20313 0.9114,-28.71096 1.3672,-20.50783 2.7344,-43.2943 2.7344,-59.24484 3.6458,-69.72661 0.9115,-10.93751 2.2787,-18.22918 1.8229,-7.7474 5.013,-13.21616 6.836,-11.39324 23.6979,-11.39324 z m -190.4949,294.40125 q 0,36.00263 25.9766,36.00263 4.1016,0 9.1146,-0.91146 18.6849,0 46.0287,-10.93751 51.9531,-20.50782 63.3464,-35.5469 v -60.61202 q 0,-15.95053 -25.9766,-15.95053 -3.1901,-0.45573 -8.6589,-0.45573 -5.013,0 -15.9505,2.27865 -10.9375,2.27865 -24.6094,8.20313 -13.6719,5.92448 -26.888,14.58334 -27.7995,18.68491 -38.2813,43.75003 -4.1016,9.57032 -4.1016,19.59637 z"
       id="text15"
       style="font-size:466.667px;font-family:'Architects Daughter';-inkscape-font-specification:'Architects Daughter';white-space:pre;fill:#56aec2"
       transform="matrix(0.40149528,0,0,0.52742917,-263.77791,-107.682)"
       aria-label="Common Ground" />
  </g>
</svg>
